<svg width="13" height="14" viewBox="0 0 13 14" fill="none" xmlns="http://www.w3.org/2000/svg">
<path id="Arrow 2" d="M1.01882 12.4137C0.728255 12.7204 0.728255 13.2177 1.01882 13.5244C1.30938 13.8311 1.78047 13.8311 2.07103 13.5244L1.01882 12.4137ZM12.9989 1.66328C12.9989 1.22951 12.6658 0.877867 12.2549 0.877866L5.55868 0.877867C5.14777 0.877867 4.81465 1.22951 4.81465 1.66328C4.81465 2.09705 5.14777 2.44869 5.55868 2.44869L11.5109 2.44869L11.5109 8.732C11.5109 9.16577 11.844 9.51741 12.2549 9.51741C12.6658 9.51741 12.9989 9.16577 12.9989 8.732L12.9989 1.66328ZM2.07103 13.5244L12.781 2.21865L11.7288 1.10791L1.01882 12.4137L2.07103 13.5244Z" fill="white"/>
</svg>
