<svg width="13" height="14" viewBox="0 0 13 14" fill="none" xmlns="http://www.w3.org/2000/svg">
<path id="Arrow 2" d="M1.01906 12.4137C0.728499 12.7204 0.728499 13.2177 1.01906 13.5244C1.30962 13.8311 1.78071 13.8311 2.07127 13.5244L1.01906 12.4137ZM12.9992 1.66328C12.9992 1.22951 12.6661 0.877867 12.2552 0.877866L5.55893 0.877867C5.14801 0.877867 4.8149 1.22951 4.8149 1.66328C4.8149 2.09705 5.14801 2.44869 5.55893 2.44869L11.5111 2.44869L11.5111 8.732C11.5111 9.16577 11.8443 9.51741 12.2552 9.51741C12.6661 9.51741 12.9992 9.16577 12.9992 8.732L12.9992 1.66328ZM2.07127 13.5244L12.7813 2.21865L11.7291 1.10791L1.01906 12.4137L2.07127 13.5244Z" fill="white"/>
</svg>
