<svg width="10" height="10" viewBox="0 0 10 10" fill="none" xmlns="http://www.w3.org/2000/svg">
<path d="M0.197563 8.05071C-0.0219199 8.27019 -0.0219199 8.62605 0.197563 8.84553C0.417045 9.06501 0.772896 9.06501 0.992379 8.84553L0.197563 8.05071ZM9.02527 0.57984C9.02527 0.269445 8.77365 0.0178202 8.46325 0.0178202L3.40507 0.0178203C3.09468 0.0178206 2.84305 0.269445 2.84305 0.57984C2.84305 0.890235 3.09468 1.14186 3.40507 1.14186L7.90123 1.14186L7.90123 5.63802C7.90123 5.94842 8.15286 6.20004 8.46325 6.20004C8.77365 6.20004 9.02527 5.94842 9.02527 5.63802L9.02527 0.57984ZM0.992379 8.84553L8.86066 0.977249L8.06584 0.182432L0.197563 8.05071L0.992379 8.84553Z" fill="white"/>
</svg>
