<svg width="10" height="10" viewBox="0 0 10 10" fill="none" xmlns="http://www.w3.org/2000/svg">
<path d="M0.197624 8.05071C-0.0218589 8.27019 -0.0218589 8.62605 0.197624 8.84553C0.417106 9.06501 0.772957 9.06501 0.99244 8.84553L0.197624 8.05071ZM9.02533 0.57984C9.02533 0.269445 8.77371 0.0178202 8.46331 0.0178202L3.40513 0.0178203C3.09474 0.0178206 2.84311 0.269445 2.84311 0.57984C2.84311 0.890235 3.09474 1.14186 3.40513 1.14186L7.90129 1.14186L7.90129 5.63802C7.90129 5.94842 8.15292 6.20004 8.46331 6.20004C8.77371 6.20004 9.02533 5.94842 9.02533 5.63802L9.02533 0.57984ZM0.99244 8.84553L8.86072 0.977249L8.0659 0.182432L0.197624 8.05071L0.99244 8.84553Z" fill="white"/>
</svg>
