<svg width="24" height="24" viewBox="0 0 24 24" fill="none" xmlns="http://www.w3.org/2000/svg">
<path d="M21 4.12512H3C2.70163 4.12512 2.41548 4.24365 2.2045 4.45463C1.99353 4.66561 1.875 4.95175 1.875 5.25012V18.0001C1.875 18.4974 2.07254 18.9743 2.42417 19.3259C2.77581 19.6776 3.25272 19.8751 3.75 19.8751H20.25C20.7473 19.8751 21.2242 19.6776 21.5758 19.3259C21.9275 18.9743 22.125 18.4974 22.125 18.0001V5.25012C22.125 4.95175 22.0065 4.66561 21.7955 4.45463C21.5845 4.24365 21.2984 4.12512 21 4.12512ZM12 11.9739L5.89219 6.37512H18.1078L12 11.9739ZM8.69906 12.0001L4.125 16.1926V7.80762L8.69906 12.0001ZM10.3641 13.5264L11.2397 14.3298C11.4472 14.5201 11.7185 14.6256 12 14.6256C12.2815 14.6256 12.5528 14.5201 12.7603 14.3298L13.6359 13.5264L18.1078 17.6251H5.89219L10.3641 13.5264ZM15.3009 12.0001L19.875 7.80762V16.1926L15.3009 12.0001Z" fill="black" fill-opacity="0.4"/>
</svg>
