<svg width="16" height="16" viewBox="0 0 16 16" fill="none" xmlns="http://www.w3.org/2000/svg">
<path d="M6.53063 2.46952L11.5306 7.46952C11.6005 7.5392 11.656 7.622 11.6939 7.71316C11.7317 7.80432 11.7512 7.90206 11.7512 8.00077C11.7512 8.09948 11.7317 8.19722 11.6939 8.28839C11.656 8.37955 11.6005 8.46235 11.5306 8.53202L6.53063 13.532C6.38973 13.6729 6.19864 13.7521 5.99938 13.7521C5.80012 13.7521 5.60902 13.6729 5.46813 13.532C5.32723 13.3911 5.24808 13.2 5.24808 13.0008C5.24808 12.8015 5.32723 12.6104 5.46813 12.4695L9.9375 8.00015L5.4675 3.53078C5.32661 3.38988 5.24745 3.19878 5.24745 2.99953C5.24745 2.80027 5.32661 2.60917 5.4675 2.46828C5.6084 2.32738 5.7995 2.24822 5.99875 2.24822C6.19801 2.24822 6.38911 2.32738 6.53 2.46828L6.53063 2.46952Z" fill="black" fill-opacity="0.6"/>
</svg>
