<svg width="14" height="14" viewBox="0 0 14 14" fill="none" xmlns="http://www.w3.org/2000/svg">
<path id="Arrow 2" d="M1.15411 11.744C0.838761 12.0594 0.838761 12.5706 1.15411 12.886C1.46946 13.2013 1.98074 13.2013 2.29609 12.886L1.15411 11.744ZM13.8376 1.01C13.8376 0.564033 13.4761 0.202503 13.0301 0.202502L5.7626 0.202503C5.31663 0.202502 4.9551 0.564033 4.9551 1.01C4.9551 1.45597 5.31663 1.8175 5.7626 1.8175L12.2226 1.8175L12.2226 8.2775C12.2226 8.72347 12.5841 9.085 13.0301 9.085C13.4761 9.085 13.8376 8.72347 13.8376 8.2775L13.8376 1.01ZM2.29609 12.886L13.6011 1.58099L12.4591 0.439014L1.15411 11.744L2.29609 12.886Z" fill="white"/>
</svg>
