<svg width="33" height="33" viewBox="0 0 33 33" fill="none" xmlns="http://www.w3.org/2000/svg">
<path id="Exclude" fill-rule="evenodd" clip-rule="evenodd" d="M16.3105 32.6987C25.0657 32.6987 32.1631 25.4532 32.1631 16.5155C32.1631 7.57784 25.0657 0.332397 16.3105 0.332397C7.55525 0.332397 0.457764 7.57784 0.457764 16.5155C0.457764 25.4532 7.55525 32.6987 16.3105 32.6987ZM20.2736 10.9938H14.3952C14.0345 10.9938 13.7421 11.2923 13.7421 11.6606C13.7421 12.0288 14.0345 12.3274 14.3952 12.3274L18.6968 12.3274L11.0928 20.0898C10.8377 20.3502 10.8377 20.7724 11.0928 21.0328C11.3479 21.2932 11.7614 21.2932 12.0165 21.0328L19.6205 13.2703L19.6205 17.6615C19.6205 18.0298 19.9129 18.3283 20.2736 18.3283C20.6344 18.3283 20.9268 18.0298 20.9268 17.6615V11.6606C20.9268 11.2923 20.6344 10.9938 20.2736 10.9938Z" fill="black"/>
</svg>
