<svg width="24" height="25" viewBox="0 0 24 25" fill="none" xmlns="http://www.w3.org/2000/svg">
<path d="M12 2.67505C9.99747 2.67505 8.0399 3.26887 6.37486 4.38142C4.70981 5.49397 3.41206 7.07528 2.64572 8.92538C1.87939 10.7755 1.67888 12.8113 2.06955 14.7753C2.46023 16.7394 3.42454 18.5435 4.84055 19.9595C6.25656 21.3755 8.06066 22.3398 10.0247 22.7305C11.9888 23.1212 14.0246 22.9207 15.8747 22.1543C17.7248 21.388 19.3061 20.0902 20.4186 18.4252C21.5312 16.7601 22.125 14.8026 22.125 12.8C22.122 10.1156 21.0543 7.54204 19.1562 5.64388C17.258 3.74572 14.6844 2.67803 12 2.67505ZM7.45969 19.2285C7.98195 18.5144 8.66528 17.9335 9.45418 17.5331C10.2431 17.1327 11.1153 16.9241 12 16.9241C12.8847 16.9241 13.7569 17.1327 14.5458 17.5331C15.3347 17.9335 16.0181 18.5144 16.5403 19.2285C15.2134 20.1695 13.6268 20.675 12 20.675C10.3732 20.675 8.78665 20.1695 7.45969 19.2285ZM9.375 12.05C9.375 11.5309 9.52896 11.0234 9.8174 10.5917C10.1058 10.16 10.5158 9.82354 10.9955 9.62486C11.4751 9.42618 12.0029 9.3742 12.5121 9.47549C13.0213 9.57677 13.489 9.82678 13.8562 10.1939C14.2233 10.561 14.4733 11.0287 14.5746 11.5379C14.6759 12.0471 14.6239 12.5749 14.4252 13.0546C14.2265 13.5342 13.8901 13.9442 13.4584 14.2327C13.0267 14.5211 12.5192 14.675 12 14.675C11.3038 14.675 10.6361 14.3985 10.1438 13.9062C9.65157 13.4139 9.375 12.7462 9.375 12.05ZM18.1875 17.6694C17.4583 16.742 16.5289 15.9914 15.4688 15.4738C16.1444 14.7896 16.6026 13.9209 16.7858 12.9769C16.9689 12.0329 16.8688 11.0559 16.498 10.1687C16.1273 9.28145 15.5024 8.52369 14.702 7.99073C13.9017 7.45776 12.9616 7.17339 12 7.17339C11.0384 7.17339 10.0983 7.45776 9.29797 7.99073C8.49762 8.52369 7.87275 9.28145 7.50198 10.1687C7.13121 11.0559 7.0311 12.0329 7.21424 12.9769C7.39739 13.9209 7.85561 14.7896 8.53125 15.4738C7.4711 15.9914 6.54168 16.742 5.8125 17.6694C4.89661 16.5084 4.32614 15.1129 4.1664 13.6427C4.00665 12.1726 4.2641 10.6872 4.90925 9.35649C5.55441 8.02583 6.5612 6.90371 7.81439 6.11859C9.06757 5.33348 10.5165 4.91708 11.9953 4.91708C13.4741 4.91708 14.9231 5.33348 16.1762 6.11859C17.4294 6.90371 18.4362 8.02583 19.0814 9.35649C19.7265 10.6872 19.984 12.1726 19.8242 13.6427C19.6645 15.1129 19.094 16.5084 18.1781 17.6694H18.1875Z" fill="black"/>
</svg>
