<svg width="24" height="25" viewBox="0 0 24 25" fill="none" xmlns="http://www.w3.org/2000/svg">
<path d="M9.375 21.05C9.375 21.4209 9.26503 21.7834 9.059 22.0917C8.85298 22.4001 8.56014 22.6404 8.21753 22.7823C7.87492 22.9242 7.49792 22.9614 7.1342 22.889C6.77049 22.8167 6.4364 22.6381 6.17417 22.3759C5.91195 22.1137 5.73337 21.7796 5.66103 21.4158C5.58868 21.0521 5.62581 20.6751 5.76773 20.3325C5.90964 19.9899 6.14996 19.6971 6.45831 19.491C6.76665 19.285 7.12916 19.175 7.5 19.175C7.99728 19.175 8.47419 19.3726 8.82582 19.7242C9.17745 20.0759 9.375 20.5528 9.375 21.05ZM17.25 19.175C16.8792 19.175 16.5166 19.285 16.2083 19.491C15.9 19.6971 15.6596 19.9899 15.5177 20.3325C15.3758 20.6751 15.3387 21.0521 15.411 21.4158C15.4834 21.7796 15.662 22.1137 15.9242 22.3759C16.1864 22.6381 16.5205 22.8167 16.8842 22.889C17.2479 22.9614 17.6249 22.9242 17.9675 22.7823C18.3101 22.6404 18.603 22.4001 18.809 22.0917C19.015 21.7834 19.125 21.4209 19.125 21.05C19.125 20.5528 18.9275 20.0759 18.5758 19.7242C18.2242 19.3726 17.7473 19.175 17.25 19.175ZM22.0753 7.88099L19.5169 16.1966C19.3535 16.7344 19.0211 17.2052 18.569 17.539C18.1169 17.8729 17.5692 18.0521 17.0072 18.05H7.77469C7.2046 18.0482 6.65046 17.8617 6.1953 17.5184C5.74015 17.1751 5.40848 16.6936 5.25 16.146L2.04469 4.92505H1.125C0.826631 4.92505 0.540483 4.80652 0.329505 4.59554C0.118526 4.38457 0 4.09842 0 3.80005C0 3.50168 0.118526 3.21553 0.329505 3.00455C0.540483 2.79358 0.826631 2.67505 1.125 2.67505H2.32687C2.73407 2.67631 3.12988 2.80956 3.45493 3.05483C3.77998 3.30009 4.01674 3.64414 4.12969 4.03536L4.81312 6.42505H21C21.1761 6.42503 21.3497 6.46634 21.5069 6.54566C21.664 6.62497 21.8004 6.74006 21.905 6.88169C22.0096 7.02331 22.0795 7.18751 22.1091 7.36107C22.1387 7.53463 22.1271 7.71271 22.0753 7.88099ZM19.4766 8.67505H5.45531L7.41375 15.5282C7.43617 15.6066 7.48354 15.6755 7.54867 15.7246C7.6138 15.7736 7.69315 15.8001 7.77469 15.8H17.0072C17.0875 15.8002 17.1656 15.7746 17.2303 15.727C17.2949 15.6794 17.3426 15.6124 17.3662 15.5357L19.4766 8.67505Z" fill="black"/>
</svg>
