<svg width="27" height="28" viewBox="0 0 27 28" fill="none" xmlns="http://www.w3.org/2000/svg">
<path d="M20.1036 5.2258C19.6354 4.75739 19.0795 4.38581 18.4677 4.13229C17.8558 3.87878 17.2001 3.74829 16.5378 3.74829C15.8755 3.74829 15.2197 3.87878 14.6079 4.13229C13.996 4.38581 13.4401 4.75739 12.9719 5.2258L12.0003 6.19746L11.0286 5.2258C10.0829 4.28008 8.80022 3.74878 7.46277 3.74878C6.12533 3.74878 4.84266 4.28008 3.89694 5.2258C2.95122 6.17152 2.41992 7.45418 2.41992 8.79163C2.41992 10.1291 2.95122 11.4117 3.89694 12.3575L12.0003 20.4608L20.1036 12.3575C20.572 11.8893 20.9436 11.3334 21.1971 10.7215C21.4506 10.1097 21.5811 9.45391 21.5811 8.79163C21.5811 8.12935 21.4506 7.47356 21.1971 6.86172C20.9436 6.24988 20.572 5.69399 20.1036 5.2258Z" stroke="#1E1E1E" stroke-width="2.2" stroke-linecap="round" stroke-linejoin="round"/>
</svg>
